<svg width="400" height="400" viewBox="0 0 400 400" fill="none" xmlns="http://www.w3.org/2000/svg">
<path d="M134.036 227.966C128.143 223.393 125.623 217.253 124.768 210.345C124.518 208.322 123.639 207.368 121.888 206.62C108.52 200.905 100.724 190.812 99.1723 176.362C97.9568 165.043 103.045 149.314 118.515 141.348C120.72 140.213 121.073 139.183 120.528 136.94C114.387 111.657 133.28 87.6978 159.404 87.8462C163.445 87.8692 165.479 86.7981 167.457 83.091C180.524 58.6008 215.938 57.452 230.922 80.9226C232.389 83.22 233.651 83.7797 236.31 83.0899C245.515 80.7016 254.402 81.8879 262.709 86.5415C267.436 89.1896 267.874 90.7153 265.879 95.6688C262.337 104.464 256.764 111.925 250.193 118.614C244.264 124.651 238.032 130.393 231.899 136.229C230.461 137.598 229.243 138.863 231.677 140.865C234.583 136.934 238.527 134.206 242.315 131.293C255.976 120.788 271.312 113.973 288.152 110.468C291.63 109.744 293.787 110.719 294.353 113.277C294.909 115.787 293.304 117.657 289.891 118.381C274.244 121.698 259.983 127.976 247.319 137.865C244.824 139.813 244.379 141.45 246.262 143.926C247.23 145.198 248.112 146.589 248.749 148.05C253.548 159.067 262.893 163.208 273.933 164.497C281.038 165.326 286.199 168.152 288.671 175.315C290.203 179.753 292.445 183.947 294.394 188.239C295.665 191.039 295.646 193.792 294.441 196.63C292.221 201.856 290.237 207.186 287.892 212.354C286.273 215.923 288.284 218.776 289.182 221.872C289.375 222.537 290.09 222.693 290.761 222.784C291.497 222.883 292.303 222.907 292.938 223.236C294.964 224.285 296.674 225.829 295.842 228.298C294.983 230.848 292.903 229.417 291.11 229.026C291.139 231.896 292.147 233.175 295.034 232.108C295.835 231.812 296.679 231.625 297.511 231.419C299.016 231.045 300.413 231.192 300.887 232.908C301.366 234.639 300.149 235.496 298.735 235.939C295.803 236.856 292.72 237.337 290.034 238.91C291.224 242.925 292.624 246.754 293.418 250.706C293.815 252.677 294.657 254.472 295.005 256.48C295.827 261.221 295.331 263.491 291.687 266.27C288.752 268.509 282.068 266.232 281.086 262.655C279.408 256.541 277.74 250.424 276.048 244.314C275.942 243.931 275.738 243.368 275.451 243.273C271.994 242.124 272.034 238.929 271.269 236.221C270.745 234.367 270.354 232.475 269.819 230.624C267.975 224.245 268.345 218.238 272.642 212.835C272.887 212.527 273.024 212.074 273.053 211.676C273.072 211.423 272.799 211.149 272.401 210.407C269.392 215.021 265.242 217.894 260.689 220.292C259.051 221.154 259.454 222.886 259.453 224.35C259.44 242.252 259.446 260.154 259.445 278.055C259.445 278.913 259.454 279.771 259.416 280.627C259.351 282.107 258.694 283.132 257.094 283.123C255.535 283.114 254.796 282.088 254.639 280.661C254.523 279.6 254.551 278.52 254.551 277.449C254.543 260.834 254.541 244.218 254.537 227.602C254.537 226.434 254.537 225.266 254.537 223.262C249.381 226.187 243.883 227.512 240.462 231.926C234.688 239.375 229.281 247.11 223.774 254.764C222.288 256.83 220.653 258.586 218.018 259.041C216.558 259.294 216.132 260.25 216.167 261.587C216.6 277.955 216.609 294.363 220.275 310.451C221.371 315.264 223.079 319.88 225.416 324.266C226.714 326.702 228.391 327.808 231.284 327.702C237.172 327.486 243.073 327.621 248.969 327.648C252.275 327.663 254.038 329.084 254.075 331.661C254.111 334.209 252.305 335.774 249.034 335.777C216.446 335.798 183.858 335.797 151.27 335.776C147.75 335.774 145.939 334.241 146.008 331.562C146.074 329.023 147.809 327.688 151.202 327.669C157.205 327.637 163.209 327.582 169.21 327.675C171.279 327.707 172.599 326.942 173.693 325.228C177.998 318.483 179.993 310.949 181.138 303.178C183.171 289.377 183.403 275.446 183.79 261.531C183.957 255.534 184.168 249.537 184.427 243.544C184.511 241.607 184.094 239.96 182.613 238.624C178.247 234.685 173.902 230.723 169.365 226.602C158.632 235.579 146.689 236.796 134.036 227.966ZM195.448 156.963C195.447 138.308 195.439 119.654 195.459 100.999C195.46 99.7241 195.502 98.4088 195.81 97.1842C196.297 95.2508 197.556 93.9635 199.686 93.9568C201.941 93.9496 203.273 95.266 203.794 97.3412C204.05 98.3603 204.03 99.4641 204.03 100.53C204.034 115.646 204.008 130.763 204.031 145.88C204.033 147.098 203.623 148.437 204.61 149.616C205.789 149.447 206.466 148.587 207.232 147.874C215.466 140.2 223.724 132.553 231.925 124.844C238.795 118.386 245.905 112.142 251.445 104.42C253.861 101.053 256.197 97.6118 257.608 93.7231C256.146 92.215 254.417 91.9113 252.808 91.3953C246.172 89.2676 239.691 90.1321 233.32 92.5339C228.283 94.4324 228.292 94.4554 226.077 89.5207C220.616 77.3541 207.375 70.1851 194.495 72.7491C182.885 75.0605 175.61 82.3537 172.248 93.5412C171.368 96.4696 170.253 97.4173 167.03 96.762C154.524 94.2194 143.473 97.1237 135.184 107.19C126.807 117.365 125.45 128.841 130.7 140.929C131.943 143.79 131.601 145.344 128.479 146.024C127.856 146.16 127.266 146.446 126.657 146.652C116.07 150.223 106.382 161.046 107.531 175.834C108.428 187.37 116.854 197.212 129.263 200.328C133.3 201.341 133.564 201.733 132.989 205.865C132.067 212.506 135.726 219.787 141.725 223.245C147.656 226.665 156.218 226.054 161.486 221.991C163.822 220.189 163.873 218.866 161.718 216.671C150.677 205.43 139.805 194.022 128.875 182.671C125.722 179.396 125.106 177.198 126.774 175.213C128.437 173.233 130.831 173.51 134.502 176.027C150.412 186.937 166.328 197.84 182.26 208.719C183.179 209.347 184.037 210.313 185.526 209.95C185.771 205.683 185.974 201.42 186.27 197.164C186.954 187.309 185.091 178.16 180.317 169.328C171.197 152.456 162.635 135.283 153.814 118.249C152.579 115.863 152.378 113.689 154.864 112.062C156.978 110.678 159.32 111.657 160.922 114.417C161.191 114.881 161.428 115.362 161.676 115.837C171.002 133.698 180.334 151.555 189.648 169.421C191.19 172.379 192.365 175.493 193.088 178.747C195.998 191.84 193.895 205.012 193.478 218.14C193.351 222.127 189.887 223.477 186.484 221.326C182.68 218.922 178.984 216.347 175.237 213.851C171.638 211.454 168.034 209.064 164.433 206.671C172.472 215.938 180.822 224.815 189.332 233.534C191.591 235.849 192.61 238.246 192.599 241.508C192.534 259.409 191.743 277.281 190.469 295.126C189.705 305.835 187.989 316.401 183.163 326.196C183.043 326.439 183.147 326.793 183.147 327.363C194.435 327.363 205.608 327.363 217.031 327.363C215.749 323.836 214.405 320.595 213.385 317.256C209.114 303.265 208.914 288.766 208.233 274.338C207.889 267.061 207.781 259.774 207.455 252.496C206.502 231.199 205.387 209.907 205.035 188.59C204.873 178.736 207.89 169.786 213.936 161.977C217.74 157.064 221.685 152.253 225.747 147.552C227.458 145.573 227.387 144.141 225.396 142.405C224.486 143.211 223.683 143.902 222.901 144.617C216.734 150.26 210.587 155.925 204.395 161.542C202.635 163.138 200.767 164.776 198.11 163.597C195.455 162.418 195.427 159.982 195.448 156.963ZM224.034 162.391C219.639 167.706 215.767 173.265 214.239 180.204C212.103 189.905 213.994 199.58 214.129 209.266C214.135 209.635 214.379 210 214.697 210.879C218.028 206.432 221.326 202.501 224.086 198.223C227.612 192.761 232.123 191.085 238.353 192.819C241.647 193.736 245.057 194.638 249.476 194.434C246.055 192.101 243.555 189.653 244.368 186.18C245.167 182.768 243.916 180.154 242.618 177.366C240.587 173.001 238.584 168.623 236.509 164.279C234.879 160.866 233.158 157.496 231.227 153.6C228.63 156.779 226.48 159.41 224.034 162.391ZM271.232 196.909C272.316 197.078 272.796 196.356 273.112 195.533C275.747 188.66 278.369 181.781 280.965 174.892C281.36 173.845 281.451 172.713 280.319 172.032C276.792 169.91 272.893 169.579 268.915 169.925C268.002 170.004 267.635 170.999 267.339 171.803C265.202 177.611 263.131 183.443 260.934 189.228C260.248 191.033 260.771 191.986 262.438 192.74C265.257 194.015 268.016 195.423 271.232 196.909ZM223.443 232.597C228.048 222.983 235.203 215.726 244.963 210.613C236.795 205.844 235.284 206.026 229.752 211.933C228.946 212.793 228.258 213.771 227.401 214.573C223.516 218.209 220.996 223.237 216.024 225.761C215.25 226.154 214.944 226.799 214.98 227.594C215.226 233.015 214.542 238.49 215.921 244.573C218.557 240.369 220.871 236.678 223.443 232.597ZM249.174 179.373C251.331 181.348 254.619 181.782 256.059 185.451C258.404 181.731 260.048 178.454 260.044 175.029C260.04 172.559 256.655 172.138 254.861 170.702C254.28 170.237 253.617 169.855 252.946 169.527C248.327 167.266 245.058 163.862 243.175 158.979C241.909 155.694 240.135 152.602 238.546 149.445C238.166 148.688 237.682 147.831 236.585 148.309C235.672 148.707 235.396 149.521 235.603 150.451C235.741 151.071 235.958 151.686 236.231 152.261C240.463 161.163 244.71 170.058 249.174 179.373ZM281.197 236.223C281.916 236.013 282.635 235.803 283.354 235.593C287.024 234.526 287.38 233.8 286.043 230.105C285.296 228.04 279.627 223.981 277.497 223.985C275.017 223.99 273.705 225.605 274.218 228.162C274.575 229.942 275.188 231.674 275.495 233.46C276.048 236.669 277.723 237.629 281.197 236.223ZM281.159 241.78C281.847 248.095 284.325 253.952 285.857 260.051C286.201 261.422 287.231 262.32 288.772 261.825C290.425 261.294 290.697 260.085 290.206 258.483C288.637 253.366 287.093 248.24 285.641 243.089C284.923 240.54 283.602 240.02 281.159 241.78ZM278.075 208.917C278.766 209.619 279.025 208.92 279.172 208.489C280.764 203.837 282.411 199.2 283.835 194.497C284.436 192.513 283.214 191.164 281.142 189.965C278.993 196.181 274.461 201.608 278.075 208.917ZM265.737 205.186C263.106 203.62 260.886 201.276 256.921 200.166C258.44 203.974 259.553 206.944 260.819 209.846C261.289 210.926 261.531 212.779 263.19 212.365C265.24 211.855 266.388 209.973 267.42 208.233C268.27 206.8 267.027 206.144 265.737 205.186ZM280 219.486C280.838 219.585 281.727 220.494 282.659 219.166C281.064 218.317 279.439 217.667 277.959 216.739C276.333 215.719 275.332 216.753 275.04 218.73C276.673 218.946 278.106 219.135 280 219.486Z" fill="#0AC46D"/>
<path d="M266.014 156.824C265.621 155.126 264.933 153.615 265.106 152.209C265.449 149.423 266.194 146.799 262.845 145.173C261.981 144.754 262.05 143.449 262.574 142.536C263.044 141.719 263.962 141.22 264.767 141.602C267.537 142.917 269.308 141.169 271.368 139.849C275.814 136.999 281.106 137.261 285.225 140.323C288.94 143.085 291.048 148.166 289.466 152.602C287.059 159.349 279.228 167.005 270.797 162.174C268.641 160.939 267.172 159.222 266.014 156.824ZM277.03 152.174C275.774 151.6 274.507 151.048 273.264 150.448C271.381 149.54 270.471 150.114 270.371 152.197C270.235 155.044 272.199 157.724 274.928 158.31C277.716 158.909 280.093 157.36 281.129 154.046C279.931 153.503 278.694 152.941 277.03 152.174Z" fill="#0AC46D"/>
<path d="M154.171 160.231C159.975 167.736 159.793 175.573 156.407 183.717C155.378 186.193 154.183 186.647 151.875 184.873C142.852 177.937 140.431 167.229 145.61 157.149C146.914 154.612 148.229 154.355 150.176 156.209C151.489 157.458 152.745 158.767 154.171 160.231Z" fill="#0AC46D"/>
<path d="M226.614 101.418C226.015 111.48 220.069 118.432 210.656 120.575C208.021 121.175 206.92 120.573 206.889 117.689C206.785 108.029 213.578 99.8126 223.13 98.1915C225.582 97.7753 226.898 98.4284 226.614 101.418Z" fill="#0AC46D"/>
<path d="M172.242 126.936C171.489 118.647 174.755 112.616 181.186 108.024C183.259 106.544 184.264 106.958 185.206 109.212C188.989 118.258 185.891 128.169 177.605 133.682C175.536 135.058 174.48 134.473 173.789 132.436C173.209 130.724 172.77 128.964 172.242 126.936Z" fill="#0AC46D"/>
<path d="M156.716 134.379C159.677 136.159 161.504 138.616 162.939 141.429C163.781 143.08 163.651 144.106 161.632 144.806C152.581 147.939 142.037 143.952 137.554 135.682C136.468 133.677 136.682 132.721 139.014 132.001C145.237 130.081 151.036 130.749 156.716 134.379Z" fill="#0AC46D"/>
<path d="M163.919 174.776C165.399 172.859 166.377 169.949 168.802 170.424C171.059 170.866 171.571 173.775 172.108 175.916C173.665 182.135 172.167 187.518 167.4 191.952C165.805 193.436 164.741 193.352 163.687 191.4C160.711 185.889 160.386 180.432 163.919 174.776Z" fill="#0AC46D"/>
</svg>
